<?xml version="1.0" encoding="UTF-8"?> <svg xmlns="http://www.w3.org/2000/svg" viewBox="0 0 1660.697 605.206"><title>Lebua Logo</title><style>.st1{fill:#fff}.st14{fill:#b19254}</style><path class="st1" d="M535.294 342.086c-1.057-.839-1.859-1.564-2.439-2.962-1.343-2.87-2.169-7.716-2.285-14.278 0-2.682-.513-20.737-1.151-54.396l.363-83.092c.275-16.124.788-35.869 1.317-59.005l.298-6.253c.208-1.944.479-3.25.479-4.023 0-1.117-.271-1.968-.938-2.476-.367-.551-1.24-.914-2.048-.914-.953 0-2.273.363-3.968 1.194-11.261 5.431-31.785 10.074-61.02 13.698v11.357c15.854 0 24.964.385 26.913 1.202 1.465.641 2.433 1.542 3.131 2.783.919 1.934 1.106 10.561 2.097 26.211 1.23 19.447 1.23 99.317 1.23 99.317-.754 35.519-1.23 53.833-1.23 55.465-.278 6.698-1.112 11.442-2.583 14.204-.754 1.129-1.91 2.22-3.54 3.013-1.306.899-3.491 1.291-6.545 1.581H465.13v11.351c20.64-.89 37.264-1.257 50-1.257 13.384 0 28.774.367 46.32 1.257v-11.351c-13.464 0-20.718-.29-21.584-.454-1.97-.575-3.659-1.127-4.572-2.172zM772.413 177.982c-11.669-6.562-24.754-9.873-39.208-9.873-11.953 0-22.858 1.992-33.147 6.263-7.855 3.071-15.771 7.36-23.575 12.743-7.84 5.373-13.822 10.187-17.512 14.128-5.054 5.897-9.696 14.83-13.86 26.495-3.932 12.247-5.978 25.607-5.978 40.615 0 18.918 3.714 35.755 11.508 49.78 7.604 14.33 18.565 24.998 32.206 32.008 14.01 7.024 29.483 10.487 46.562 10.487 8.729 0 16.973-.764 24.843-2.73 7.801-1.835 14.779-4.028 20.899-6.838 4.143-1.869 10.715-5.622 19.651-11.231l6.248-14.088-3.216-3.414c-11.544 7.054-21.175 11.931-29.159 14.314-7.803 2.801-15.705 4.043-23.655 4.043-11.699 0-23.09-2.698-33.831-8.221-10.886-5.594-19.291-14.025-25.607-25.481-6.197-11.239-9.321-26.359-9.646-44.912h62.337c13.942 0 27.856-.73 41.896-1.668 7.288-.542 15.71-1.446 24.954-3.356.796-5.155 1.17-9.682 1.17-13.457 0-14.443-2.687-27.215-8.03-38.744-5.636-11.355-14.082-20.365-25.85-26.863zm-2.155 69.885c-5.167.539-16.711.916-33.853.916-7.276 0-20.524-.377-39.871-.916-10.062-.503-16.909-.926-20.6-1.432.198-22.657 4.59-39.081 13.723-49.594 8.859-10.727 20.78-15.771 35.23-15.771 13.979 0 24.952 4.652 33.362 14.276 8.168 9.498 12.395 24.853 12.395 45.002.001 1.821-.209 4.177-.386 7.519zM1059.625 179.25c-11.077-6.56-23.813-10.139-38.087-10.139-9.072 0-17.818 1.482-25.875 4.333-8.299 2.819-13.938 5.806-17.439 8.744l-26.976 26.434.505-21.015c.092-16.15 1.069-36.118 1.555-59.032v-6.476c.203-1.944.203-3.25.203-4.023 0-1.117-.203-1.968-.689-2.476-.433-.551-1.142-.914-2.099-.914-.815 0-2.104.363-3.889 1.194-11.313 5.431-31.403 10.074-60.448 13.698v11.357c15.558 0 24.492.385 26.451 1.202 1.324.641 2.33 1.542 2.959 2.783.83 1.934 1.012 10.567 2.005 26.313 1.255 19.895-.05.005 1.255 20.886v84.65c0 4.855-.249 21.453-.888 49.447-.152 4.115-.841 14.627-2.125 30.948l6.379 2.36 15.229-14.44c8.309 5.975 16.234 9.812 23.714 12.182 7.247 2.259 15.453 3.361 24.14 3.361 10.158 0 18.392-1.103 24.787-3.463 6.7-2.359 15.61-7.778 27.307-16.321l28.376-20.537c2.723-2.174 5.922-6.299 9.934-12.397 5.298-8.078 9.737-17.1 13.076-27.476 3.315-10.211 4.993-20.876 4.993-32.48 0-15.006-2.884-28.318-8.83-40.376-5.979-12.405-14.456-21.867-25.523-28.327zm-14.814 138.071c-10.078 14.992-24.746 22.121-43.701 22.121-8.132 0-15.905-1.268-23.136-3.903-7.215-2.926-13.672-6.838-19.047-11.256-3.736-3.022-5.907-5.305-6.538-7.3-.709-1.746-1.142-5.948-1.142-12.245v-73.406c3.255-10.451 9.793-19.335 19.7-26.676 9.737-7.191 20.892-10.424 33.271-10.424 10.567 0 20.213 2.394 28.71 7.711 8.407 5.126 15.066 12.777 19.874 23.126 4.969 10.073 7.215 23.15 7.215 38.226.001 21.494-4.984 39.81-15.206 54.026zM1397.188 344.712c-13.302 0-20.425-.254-21.221-.454-1.802-.565-3.473-1.127-4.392-2.172-1.052-.839-1.956-1.564-2.608-2.962-1.13-2.87-1.935-7.387-2.056-14.226-.228-2.734-.575-11.746-1.226-27.261l-.143-26.966V243.95c0-7.329.143-21.557.938-42.708.552-12.131 1.108-20.174 1.543-24.367.09-1.441.188-3.01.188-3.951 0-1.144-.321-2.147-.977-2.81-.624-.566-1.405-1.006-2.232-1.006-1.177 0-2.764.682-4.818 2.021-12.581 6.649-32.632 11.693-60.497 14.59v11.394c4.188.186 9.561.186 16.561.186 5.016 0 8.354.614 10.19 1.947 1.286.725 2.055 1.579 2.51 3.061.849 2.51 1.402 8.066 1.729 16.573.737 13.577.991 21.896.991 25.068v16.459c0 11.103-.254 22.296-.991 33.6-.326 4.014-.88 6.977-1.729 9.094-.883 1.797-2.762 4.781-5.564 8.408-3.685 5.015-7.36 9.043-10.825 11.906-4.919 3.937-10.499 6.875-16.562 9.193-6.274 2.198-12.342 3.148-18.602 3.148-9.072 0-16.653-1.727-22.904-5.77-6.016-3.738-10.223-8.93-12.39-15.205-2.061-6.301-3.062-17.337-3.062-33.161v-37.839c0-7.165.247-21.668.842-43.094.452-11.844.86-19.623 1.279-23.815 0-1.441.159-3.01.159-3.951 0-1.144-.159-2.147-.8-2.81-.726-.566-1.381-1.006-2.285-1.006-1.079 0-2.798.682-4.892 2.021-12.47 6.649-32.658 11.693-60.602 14.59v11.394c4.268.186 9.663.186 16.701.186 4.901 0 8.263.614 10.224 1.947a7.713 7.713 0 0 1 2.508 3.061c.665 2.51 1.432 8.207 1.596 16.834.842 13.49 1.243 21.932 1.243 25.283v33.208c0 3.99-.213 7.743-.607 11.844-.444 4.004-.636 8.332-.636 12.847 0 9.549 1.03 17.78 3.127 24.531 1.98 6.949 5.068 12.584 8.9 16.835 4.938 5.658 11.024 10.177 18.02 12.747 7.182 2.999 15.935 4.13 26.473 4.13 7.568 0 14.267-.505 20.002-1.784 5.393-1.519 10.954-3.888 16.525-7.051 2.43-1.166 4.722-3.076 7.234-5.571 10.766-10.678 19.982-19.306 27.616-25.491-.164 13.362-.59 24.766-.991 35.366a336.188 336.188 0 0 1 28.666-1.232c8.681 0 21.267.406 37.845 1.232v-11.32zM1647.898 343.683c-4.035-.276-6.823-.868-8.158-1.736-1.676-.873-2.947-2.118-3.637-4.275-1.001-2.408-1.654-7.377-1.654-13.389V266.46l1.156-35.457c0-12.455-1.669-22.381-4.983-29.759-4.906-10.115-12.41-18.317-22.52-23.774-10.013-5.448-22.534-8.359-37.315-8.359-9.885 0-18.943 1.482-26.922 4.253-10.514 3.738-23.866 11.08-40.375 21.62.187 3.308.187 7.738.187 13.411 0 5.044 0 9.258-.187 12.158l10.376 2.839c1.521-4.507 4.179-10.506 7.653-18.771l3.397-6.901c1.356-1.318 4.737-3.126 10.615-5.259 5.571-2.271 12.322-3.274 19.935-3.274 10.569 0 19.511 2.234 26.727 6.877 7.377 4.178 12.609 9.996 15.646 17.052 3.011 6.572 4.568 16.382 4.541 28.567-16.662 1.896-33.332 4.802-50.061 9.295-16.788 3.956-28.956 7.563-36.321 11.106-4.52 2.081-8.807 5.19-13.113 9.668-4.312 4.13-7.929 10.064-10.874 17.478-3.147 7.466-4.579 15.543-4.579 24.63 0 13.851 4.439 25.017 13.105 33.134 8.599 8.492 20.865 12.521 36.549 12.521 7.228 0 13.326-1.216 18.418-3.738 4.947-2.372 20.503-13.712 46.876-33.763l-1.218 34.026c13.011-.826 23.477-1.232 31.304-1.232 7.977 0 17.391.406 28.23 1.232v-11.326l-12.798-1.031zm-45.518-37.379c-8.506 10.016-16.911 17.338-25.367 22.396-8.432 5.334-16.991 7.781-25.721 7.781-9.36 0-16.641-2.675-22.092-8.197-5.187-5.455-7.798-12.82-7.798-22.483 0-7.952 1.733-15.19 5.049-21.915 2.067-4.253 4.767-7.479 7.753-9.737 4.805-3.7 13.248-7.428 25.217-10.891 11.732-3.536 26.048-6.735 42.959-9.685v52.731zM636.413 516.319h-25.862v-21.871h-6.731v54.239h6.731v-26.045h25.862v26.045h6.762v-54.239h-6.762zM698.012 493.284c-15.556 0-28.427 12.745-28.427 28.279 0 16.108 12.707 28.278 28.427 28.278 15.688 0 28.412-12.17 28.412-28.278 0-15.533-12.879-28.279-28.412-28.279zm0 50.262c-11.716 0-21.676-9.627-21.676-21.982 0-11.945 8.942-21.956 21.676-21.956 12.762 0 21.658 10.011 21.658 21.956 0 12.355-9.914 21.982-21.658 21.982zM748.379 500.609h12.896v48.078h6.749v-48.078h12.85v-6.161h-32.495zM806.712 548.687h29.135v-6.174H813.44v-20.5h21.73v-6.186h-21.73v-15.218h22.407v-6.161h-29.135zM871.394 494.448h-6.739v54.239h23.214v-6.174h-16.475zM930.576 516.594l-3.893-1.506c-3.386-1.306-7.576-3.564-7.576-7.776 0-4.744 4.769-7.704 9.108-7.704 4.089 0 6.664 1.741 8.684 5.131l5.393-3.237c-2.914-5.271-7.927-8.217-13.965-8.217-8.214 0-15.956 5.254-15.956 14.027 0 7.563 5.583 11.089 11.778 13.749l3.738 1.581c4.695 1.944 9.387 4.479 9.387 10.301 0 5.683-4.188 10.591-10.06 10.591-5.774 0-10.542-4.343-10.438-10.291l-6.874 1.468c1.15 8.656 8.011 15.156 16.781 15.156 9.711 0 17.342-7.087 17.342-16.924 0-9.073-5.721-13.324-13.449-16.349zM1055.816 528.9l-4.307-4.413-6.361 7.324-11.262-13.695c4.551-3.304 9.803-7.38 9.803-13.526 0-7.1-5.868-11.305-12.455-11.305-7.138 0-12.564 4.379-12.564 11.892 0 4.58 2.893 8.606 5.978 11.856l-3.385 2.435c-5.175 3.763-9.436 7.516-9.436 14.39 0 9.362 7.499 16.01 16.544 16.01 6.467 0 12.212-3.702 16.312-8.504l5.886 7.324h8.352l-9.723-12.021 6.618-7.767zm-24.771-30.311c3.615 0 6.362 2.121 6.362 5.898 0 3.989-3.766 6.248-6.493 8.352l-.849.58-1.779-2.258c-1.604-2.046-3.265-4.062-3.265-6.8.001-3.423 2.804-5.772 6.024-5.772zm-2.836 45.193c-5.178 0-10.071-4.818-10.071-9.962 0-5.196 6.122-8.862 9.851-11.479l.648-.392 12.018 14.668c-3.4 3.353-7.429 7.165-12.446 7.165zM1154.318 509.894c0-5.155-2.603-10.286-7.144-12.937-4.313-2.447-9.485-2.51-14.3-2.51h-8.207v54.239h6.751v-22.974h2.778l16 22.974h8.207l-17.151-23.601c7.855-.939 13.066-7.425 13.066-15.191zm-20.745 10.223h-2.154v-19.671h1.794c6.71 0 14.765 1.24 14.765 9.762-.001 8.606-7.487 9.909-14.405 9.909zM1184.187 548.687h29.131v-6.174h-22.377v-20.5h21.726v-6.186h-21.726v-15.218h22.377v-6.161h-29.131zM1259.889 516.594l-3.888-1.506c-3.371-1.306-7.576-3.564-7.576-7.776 0-4.744 4.793-7.704 9.094-7.704 4.106 0 6.713 1.741 8.71 5.131l5.407-3.237c-2.965-5.271-7.932-8.217-14.001-8.217-8.194 0-15.939 5.254-15.939 14.027 0 7.563 5.573 11.089 11.798 13.749l3.75 1.581c4.679 1.944 9.349 4.479 9.349 10.301 0 5.683-4.169 10.591-10.028 10.591-5.811 0-10.535-4.343-10.473-10.291l-6.879 1.468c1.178 8.656 8.019 15.156 16.789 15.156 9.698 0 17.337-7.087 17.337-16.924-.001-9.073-5.744-13.324-13.45-16.349zM1325.825 493.284c-15.561 0-28.417 12.745-28.417 28.279 0 16.108 12.719 28.278 28.417 28.278 15.679 0 28.411-12.17 28.411-28.278 0-15.533-12.871-28.279-28.411-28.279zm0 50.262c-11.732 0-21.692-9.627-21.692-21.982 0-11.945 8.969-21.956 21.692-21.956 12.779 0 21.653 10.011 21.653 21.956 0 12.355-9.899 21.982-21.653 21.982zM1410.876 509.894c0-5.155-2.587-10.286-7.104-12.937-4.314-2.447-9.513-2.51-14.345-2.51h-8.216v54.239h6.777v-22.974h2.795l15.996 22.974h8.197l-17.13-23.601c7.875-.939 13.03-7.425 13.03-15.191zm-20.703 10.223h-2.184v-19.671h1.779c6.739 0 14.779 1.24 14.779 9.762.001 8.606-7.499 9.909-14.374 9.909zM1434.284 500.609h12.926v48.078h6.73v-48.078h12.888v-6.161h-32.544zM1510.365 516.594l-3.9-1.506c-3.393-1.306-7.563-3.564-7.563-7.776 0-4.744 4.775-7.704 9.106-7.704 4.108 0 6.686 1.741 8.692 5.131l5.409-3.237c-2.938-5.271-7.929-8.217-13.977-8.217-8.233 0-15.969 5.254-15.969 14.027 0 7.563 5.604 11.089 11.793 13.749l3.748 1.581c4.67 1.944 9.363 4.479 9.363 10.301 0 5.683-4.195 10.591-10.04 10.591-5.794 0-10.535-4.343-10.463-10.291l-6.851 1.468c1.129 8.656 8.006 15.156 16.75 15.156 9.723 0 17.364-7.087 17.364-16.924.002-9.073-5.735-13.324-13.462-16.349z"></path><path class="st14" d="M379.06 504.739c-1.574 25.23-9.847 53.071-36.083 69.33-19.02 11.781-55.808 19.915-81.967 3.124-26.161-16.647-36.203-39.798-38.526-63.788-1.935-20.437 7.776-39.131 16.684-46.82 9.464-8.217 18.208-13.703 33.955-13.892 19.521-.336 38.614 13.392 43.65 35.656 4.101 18.475 2.343 31.531-8.359 45.696 0 0 45.317-10.175 37.676-58.466-4.688-30.02-24.93-42.006-43.235-45.858 3.315-3.375 4.616-7.225 4.616-12.97 0-10.514-8.569-19.06-19.197-19.06-10.635 0-19.127 8.546-19.127 19.06 0 3.424 1.463 8.008 2.907 10.75-8.87.994-41.237 6.979-53.18 40.033 0 0 14.876-30.334.762-111.819 0 0 68.261-1.795 104.735 26.733 26.562 20.854 58.169 65.002 54.689 122.291M225.558 266.924c11.307-22.044 32.709-40.373 53.649-41.565 21.888-1.231 41.341 13.297 45.805 37.274 3.634 19.721-.046 35.765-15.558 51.552-13.5 13.814-60.05 29.498-92.29 27.616.001 0-11.067-36.752 8.394-74.877m-28.304 225.405c1.727-10.451 4.149-42.142-1.668-76.959-6.178-36.181-19.397-65.508-27.203-84.75-13.976-34.443-12.617-67.186-12.472-78.049.452-38.529 15.71-64.18 19.175-70.488 20.048-36.268 51.265-34.902 51.265-34.902-11.242 25.745-39.637 86.322-40.403 139.677-.629 42.258 15.456 77.034 21.107 118 7.8 57.575-9.801 87.471-9.801 87.471m-83.596-108.326c13.043 31.756 18.747 45.945 20.524 67.475 1.782 20.776-7.305 47.865-32.605 56.133-22.398 7.215-44.074-2.147-63.45-27.575-14.726-19.449-23.247-46.463-24.538-68.92-1.572-27.023 5.141-59.56 26.216-80.332 21.748-21.291 38.621-23.604 38.621-23.604 6.515 14.532 27.153 57.138 35.232 76.823m261.015 21.617c-18.771-27.775-41.38-50.675-94.17-58.064 0 0 67.272-3.873 73.09-67.521 4.268-46.531-25.535-66.045-42.531-72.68.817 0 1.678.036 2.5.036 17.618 0 31.967-14.291 31.967-31.942 0-14.492-9.723-26.787-22.977-30.765 7.503-5.793 30.765-28.003 34.139-63.996C359.14 54.075 352.943 21.77 311.35 0c0 0 26.086 29.822 11.203 80.688-10.612 36.348-50.936 80.782-62.753 96.306-11.742 15.495-38.193 45.002-46.697 70.37 0 0 16.999-44.502 30.506-80.27 12.651-33.539 26.265-84.579-34.723-113.696 0 0 20.5 16.046 24.865 44.148 2.435 15.998-1.142 31.855-5.494 44.451 0 0-18.447.23-34.251 9.411-16.762 9.803-29.485 24.933-40.969 57.213-10.446 29.258-10.671 64.575-4.868 96.503 0 0-12.564-28.166-11.398-70.231 1.202-45.195 7.578-71.579 15.004-94.55 0 0-23.109 45.829-26.067 93.16-2.466 39.152 4.348 58.298 15.526 81.308 0 0-15.857-22.884-49.166-24.101 0 0-6.454-16.612-11.004-29.85-5.298-15.328-2.483-31.038 8.434-40.222 3.356-2.795 14.126-12.656 34.15-9.362 0 0-14.496-10.538-34.646-3.746-10.758 3.661-18.684 9.669-24.49 19.835-8.642 15.028-6.623 27.566 8.243 65.438 0 0-38.19 8.504-57.874 45.002-9.953 18.508-22.461 47.316-8.995 101.248 8.082 32.247 25.929 63.222 54.94 77.378 19.008 9.405 65.203 9.821 80.548-32.045 7.919-21.631 8.743-42.206-13.517-102.239-6.775-17.98-26.521-65.829-29.783-74.713 0 0 43.16 5.521 68.793 71.137 12.044 31.074 19.207 66.581 18.452 112.214-.551 33.084-10.613 58.188-22.529 71.712-13.95 15.875-28.422 20.616-41.119 19.601-9.696-.68-14.247-9.336-16.747-13.69-2.534-4.403-4.014-8.708-9.02-4.403-4.955 4.403-4.955 13.11-.614 16.938 4.353 3.689 18.305 16.159 47.471 5.206 36.338-13.597 54.014-61.288 63.039-86.317 0 0-5.107 40.459 23.585 72.721 19.468 21.827 41.808 33.884 75.138 32.554 50.731-2.031 81.45-39.82 91.126-74.238 8.803-31.435 7.579-83.168-20.976-125.249M463.902 424.745c199.488-2.336 398.949-1.722 598.399-2.701 199.45.931 398.922.355 598.396 2.701-199.474 2.307-398.945 1.73-598.396 2.631-199.45-.938-398.911-.348-598.399-2.631"></path></svg> 